<svg xmlns="http://www.w3.org/2000/svg" xmlns:xlink="http://www.w3.org/1999/xlink" contentStyleType="text/css" height="697px" preserveAspectRatio="none" style="width:395px;height:697px;background:#FFFFFF;" version="1.1" viewBox="0 0 395 697" width="395px" zoomAndPan="magnify"><title>&#1045;&#1076;&#1080;&#1085;&#1072;&#1103; &#1041;&#1044; tasks-&#1076;&#1086;&#1084;&#1077;&#1085;&#1072;</title><defs/><g><text fill="#000000" font-family="sans-serif" font-size="14" font-weight="bold" lengthAdjust="spacing" textLength="171.3496" x="108.3252" y="24.5332">&#1045;&#1076;&#1080;&#1085;&#1072;&#1103; &#1041;&#1044; tasks-&#1076;&#1086;&#1084;&#1077;&#1085;&#1072;</text><!--class TaskBoards--><g id="elem_TaskBoards"><rect codeLine="10" fill="#F1F1F1" height="131.6563" id="TaskBoards" rx="2.5" ry="2.5" style="stroke:#181818;stroke-width:0.5;" width="317.915" x="38.5" y="50.6094"/><text fill="#000000" font-family="sans-serif" font-size="14" lengthAdjust="spacing" textLength="74.6963" x="160.1094" y="70.1426">TaskBoards</text><line style="stroke:#181818;stroke-width:0.5;" x1="39.5" x2="355.415" y1="78.2188" y2="78.2188"/><ellipse cx="49.5" cy="92.5234" fill="#000000" rx="3" ry="3" style="stroke:#000000;stroke-width:1;"/><text fill="#000000" font-family="sans-serif" font-size="14" lengthAdjust="spacing" textLength="140.0684" x="58.5" y="96.752">ProjectKey : text &#171;PK&#187;</text><ellipse cx="49.5" cy="110.1328" fill="#000000" rx="3" ry="3" style="stroke:#000000;stroke-width:1;"/><text fill="#000000" font-family="sans-serif" font-size="14" lengthAdjust="spacing" textLength="109.7168" x="58.5" y="114.3613">Name : text &#171;PK&#187;</text><line style="stroke:#181818;stroke-width:1;" x1="39.5" x2="355.415" y1="121.4375" y2="121.4375"/><text fill="#000000" font-family="sans-serif" font-size="14" lengthAdjust="spacing" textLength="305.915" x="44.5" y="139.9707">Kind : text  ' spec|ideas|intake|work|free (def free)</text><text fill="#000000" font-family="sans-serif" font-size="14" lengthAdjust="spacing" textLength="112.0479" x="44.5" y="157.5801">Description : text?</text><text fill="#000000" font-family="sans-serif" font-size="14" lengthAdjust="spacing" textLength="140.8613" x="44.5" y="175.1895">CreatedAt / UpdatedAt</text></g><!--class plan_nodes--><g id="elem_plan_nodes"><rect codeLine="18" fill="#F1F1F1" height="184.4844" id="plan_nodes" rx="2.5" ry="2.5" style="stroke:#181818;stroke-width:0.5;" width="368.6104" x="13" y="238.6094"/><text fill="#000000" font-family="sans-serif" font-size="14" lengthAdjust="spacing" textLength="72.3994" x="161.1055" y="258.1426">plan_nodes</text><line style="stroke:#181818;stroke-width:0.5;" x1="14" x2="380.6104" y1="266.2188" y2="266.2188"/><ellipse cx="24" cy="280.5234" fill="#000000" rx="3" ry="3" style="stroke:#000000;stroke-width:1;"/><text fill="#000000" font-family="sans-serif" font-size="14" lengthAdjust="spacing" textLength="96.4961" x="33" y="284.752">Key : text &#171;PK&#187;</text><ellipse cx="24" cy="298.1328" fill="#000000" rx="3" ry="3" style="stroke:#000000;stroke-width:1;"/><text fill="#000000" font-family="sans-serif" font-size="14" lengthAdjust="spacing" textLength="123.7441" x="33" y="302.3613">Version : long &#171;PK&#187;</text><line style="stroke:#181818;stroke-width:1;" x1="14" x2="380.6104" y1="309.4375" y2="309.4375"/><text fill="#000000" font-family="sans-serif" font-size="14" lengthAdjust="spacing" textLength="356.6104" x="19" y="327.9707">NodeId : text  ' &#1057;&#1058;&#1040;&#1041;&#1048;&#1051;&#1068;&#1053;&#1067;&#1049;: &#1095;&#1077;&#1088;&#1077;&#1079; &#1088;&#1077;&#1074;&#1080;&#1079;&#1080;&#1080; &#1080; rename</text><text fill="#000000" font-family="sans-serif" font-size="14" lengthAdjust="spacing" textLength="165.9834" x="19" y="345.5801">Board : text   ' &#1082;&#1072;&#1082;&#1072;&#1103; &#1076;&#1086;&#1089;&#1082;&#1072;</text><text fill="#000000" font-family="sans-serif" font-size="14" lengthAdjust="spacing" textLength="244.3848" x="19" y="363.1895">Type : text?   ' feature|bug (null &#1085;&#1072; free)</text><text fill="#000000" font-family="sans-serif" font-size="14" lengthAdjust="spacing" textLength="113.9482" x="19" y="380.7988">Status : text  ' slug</text><text fill="#000000" font-family="sans-serif" font-size="14" lengthAdjust="spacing" textLength="225.6133" x="19" y="398.4082">Name / Body / Priority / CommitRef?</text><text fill="#000000" font-family="sans-serif" font-size="14" lengthAdjust="spacing" textLength="343.1436" x="19" y="416.0176">PrevKey? / ActiveFrom / ActiveTo? / Created / Updated</text></g><!--class relations--><g id="elem_relations"><rect codeLine="29" fill="#F1F1F1" height="131.6563" id="relations" rx="2.5" ry="2.5" style="stroke:#181818;stroke-width:0.5;" width="382.8633" x="6" y="478.6094"/><text fill="#000000" font-family="sans-serif" font-size="14" lengthAdjust="spacing" textLength="52.917" x="170.9731" y="498.1426">relations</text><line style="stroke:#181818;stroke-width:0.5;" x1="7" x2="387.8633" y1="506.2188" y2="506.2188"/><ellipse cx="17" cy="520.5234" fill="#000000" rx="3" ry="3" style="stroke:#000000;stroke-width:1;"/><text fill="#000000" font-family="sans-serif" font-size="14" lengthAdjust="spacing" textLength="84.0479" x="26" y="524.752">Id : text &#171;PK&#187;</text><line style="stroke:#181818;stroke-width:1;" x1="7" x2="387.8633" y1="531.8281" y2="531.8281"/><text fill="#000000" font-family="sans-serif" font-size="14" lengthAdjust="spacing" textLength="367.165" x="12" y="550.3613">Kind : text  ' task_spec|issue_task|idea_spec|blocks|nfr|dup</text><text fill="#000000" font-family="sans-serif" font-size="14" lengthAdjust="spacing" textLength="112.041" x="12" y="567.9707">FromNodeId : text</text><text fill="#000000" font-family="sans-serif" font-size="14" lengthAdjust="spacing" textLength="95.7168" x="12" y="585.5801">ToNodeId : text</text><text fill="#000000" font-family="sans-serif" font-size="14" lengthAdjust="spacing" textLength="370.8633" x="12" y="603.1895">ActiveFrom / ActiveTo? / Created / Updated  ' &#1090;&#1077;&#1084;&#1087;&#1086;&#1088;&#1072;&#1083;&#1100;&#1085;&#1086;</text></g><g id="elem_GMN8"><path d="M9,647.6094 L9,690.3125 A0,0 0 0 0 9,690.3125 L385.6655,690.3125 A0,0 0 0 0 385.6655,690.3125 L385.6655,657.6094 L375.6655,647.6094 L201.5,647.6094 L197.5,610.8047 L193.5,647.6094 L9,647.6094 A0,0 0 0 0 9,647.6094 " fill="#FEFFDD" style="stroke:#181818;stroke-width:0.5;"/><path d="M375.6655,647.6094 L375.6655,657.6094 L385.6655,657.6094 L375.6655,647.6094 " fill="#FEFFDD" style="stroke:#181818;stroke-width:0.5;"/><text fill="#000000" font-family="sans-serif" font-size="13" lengthAdjust="spacing" textLength="221.7871" x="15" y="666.1045">&#1050;&#1086;&#1085;&#1077;&#1094; &#1088;&#1077;&#1073;&#1088;&#1072; = NodeId (&#1089;&#1090;&#1072;&#1073;&#1080;&#1083;&#1100;&#1085;&#1099;&#1081;).</text><text fill="#000000" font-family="sans-serif" font-size="13" lengthAdjust="spacing" textLength="355.6655" x="15" y="682.4561">&#1048;&#1085;&#1076;&#1077;&#1082;&#1089; &#1087;&#1086; From &#1080; &#1087;&#1086; To &#8212; &#1086;&#1073;&#1088;&#1072;&#1090;&#1085;&#1099;&#1081; &#1086;&#1073;&#1093;&#1086;&#1076; &#1076;&#1083;&#1103; &#1101;&#1092;&#1092;&#1077;&#1082;&#1090;&#1086;&#1074;.</text></g><line style="stroke:#181818;stroke-width:1;" x1="193.5" x2="201.5" y1="186.6571" y2="186.6571"/><line style="stroke:#181818;stroke-width:1;" x1="193.5" x2="201.5" y1="189.6571" y2="189.6571"/><line style="stroke:#181818;stroke-width:1;" x1="197.5" x2="197.5" y1="190.6571" y2="182.6571"/><line style="stroke:#181818;stroke-width:1;" x1="197.5" x2="203.5" y1="230.5435" y2="238.5435"/><line style="stroke:#181818;stroke-width:1;" x1="197.5" x2="191.5" y1="230.5435" y2="238.5435"/><line style="stroke:#181818;stroke-width:1;" x1="197.5" x2="197.5" y1="230.5435" y2="238.5435"/><ellipse cx="197.5" cy="224.5435" fill="none" rx="4" ry="4" style="stroke:#181818;stroke-width:1;"/><path d="M197.5,190.6571 C197.5,208.3059 197.5,201.7444 197.5,220.5435 " fill="none" style="stroke:#181818;stroke-width:1;"/><text fill="#000000" font-family="sans-serif" font-size="13" lengthAdjust="spacing" textLength="88.5117" x="199.5" y="216.1045">Board -&gt; Name</text><line style="stroke:#181818;stroke-width:1;" x1="123.1825" x2="130.4509" y1="424.6037" y2="427.9458"/><line style="stroke:#181818;stroke-width:1;" x1="121.9292" x2="129.1976" y1="427.3294" y2="430.6715"/><line style="stroke:#181818;stroke-width:1;" x1="125.1456" x2="128.4878" y1="429.909" y2="422.6406"/><line style="stroke:#181818;stroke-width:1;" x1="122.04" x2="130.9723" y1="471.2885" y2="475.7845"/><line style="stroke:#181818;stroke-width:1;" x1="122.04" x2="120.2248" y1="471.2885" y2="481.1224"/><line style="stroke:#181818;stroke-width:1;" x1="122.04" x2="125.5985" y1="471.2885" y2="478.4534"/><ellipse cx="119.3711" cy="465.9148" fill="none" rx="4" ry="4" style="stroke:#181818;stroke-width:1;"/><path d="M125.1456,429.909 C122.4297,435.8156 123.4017,434.557 121.5,440.6094 C117.3699,453.754 111.6913,450.452 117.5918,462.3323 " fill="none" style="stroke:#181818;stroke-width:1;"/><text fill="#000000" font-family="sans-serif" font-size="13" lengthAdjust="spacing" textLength="128.9844" x="123.5" y="456.1045">NodeId = FromNodeId</text><line style="stroke:#181818;stroke-width:1;" x1="251.2973" x2="259.1143" y1="427.3742" y2="425.6729"/><line style="stroke:#181818;stroke-width:1;" x1="251.9353" x2="259.7523" y1="430.3056" y2="428.6042"/><line style="stroke:#181818;stroke-width:1;" x1="256.0565" x2="254.3551" y1="430.432" y2="422.615"/><line style="stroke:#181818;stroke-width:1;" x1="249.9282" x2="251.8324" y1="471.1335" y2="480.9505"/><line style="stroke:#181818;stroke-width:1;" x1="249.9282" x2="241.037" y1="471.1335" y2="475.7103"/><line style="stroke:#181818;stroke-width:1;" x1="249.9282" x2="246.4347" y1="471.1335" y2="478.3304"/><ellipse cx="252.5483" cy="465.7358" fill="none" rx="4" ry="4" style="stroke:#181818;stroke-width:1;"/><path d="M256.0565,430.432 C258.7986,443.0311 257.3198,448.1183 253.5,460.6094 C251.67,466.5936 257.1076,456.3431 254.295,462.1373 " fill="none" style="stroke:#181818;stroke-width:1;"/><text fill="#000000" font-family="sans-serif" font-size="13" lengthAdjust="spacing" textLength="113.8262" x="257.5" y="456.1045">NodeId = ToNodeId</text><!--SRC=[ZLDTQnD157tVNt7DYwsGzhtKbbeH9522Hb_BPFScNRCxiypCLaDNI4lL1nKLAbJ51ttLXxIajFRBlp3x5_mbthkRDB6A5B8VSxzoxZbdhoLQj6C1aUYgr8A9qGefF1lQ2C6zTmDtvCvSFty3xftR0IjCnrGfUkvEtG5dlBKmGF13xKVecKue4w55354eqNOJ1ANjcl8yb3Io2mtglwM43WniU00teAxL8_Hj3Rim1nQVM9YVhzSM5ehaYeZnht2rIhTQA8DH1gw3IT3F28SmMIYjw63sMEbErjA8C1LW2_Xjclfke_5rcDXGoM7x8aMNDGgBmPA5MNYG1EMxztG4Eec4N9Kgm17eVwDzYDgKSoCbsvS0hr3xtKd8xelxwjuIgRlka_lkFhjlxiCSv2_SGTuZPW-XUEmJ_OTq7G7zD4eYX8OL35xCuc77hiyNoqJQv9jyeC86Ap3SioXiqQAfngoPjc5Afb44hE45FVSjfSqaiL7QPlGin2pzRz2bHrs7IZCnix2iuZYqzx35DDOrhXCrYnHVycsuZdUqYYyE3SM98TLZeiSqQum42pDYUKpNVxLdIwwM1Z0cnLK-5rueWyr8-HsJoPREWZIXTWRrXnhCaxeSkVe2Z27V8grEtK-YlaTAdEIlYDPpMct2xrbMhQgDIJFDGQLKihfGC5pn9fB3yZ4fL3q4UNDYXwltZ7QiU59PXAQobfPJhN4vhUq-qfTzHXvyNlflZ_UXvk6KgNoJLksxFR9aiMJ-qlsOdk76NMeRKCTnlWbCH86HNLiS6Wf-zNQ0XXSJQKZHMWQUqNt0nZqX_-Qly-ryknYqHV7z6R9700pvDm00]--></g></svg>