<svg xmlns="http://www.w3.org/2000/svg" xmlns:xlink="http://www.w3.org/1999/xlink" contentStyleType="text/css" height="563px" preserveAspectRatio="none" style="width:713px;height:563px;background:#FFFFFF;" version="1.1" viewBox="0 0 713 563" width="713px" zoomAndPan="magnify"><title>&#1040;&#1074;&#1090;&#1086;&#1084;&#1072;&#1090; work-&#1079;&#1072;&#1076;&#1072;&#1095;&#1080; (feature|bug)</title><defs/><g><text fill="#000000" font-family="sans-serif" font-size="14" font-weight="bold" lengthAdjust="spacing" textLength="237.9727" x="212.5137" y="24.5332">&#1040;&#1074;&#1090;&#1086;&#1084;&#1072;&#1090; work-&#1079;&#1072;&#1076;&#1072;&#1095;&#1080; (feature|bug)</text><ellipse cx="596" cy="60.6094" fill="#222222" rx="10" ry="10" style="stroke:#222222;stroke-width:1;"/><g id="Pending"><rect fill="#F1F1F1" height="50" rx="12.5" ry="12.5" style="stroke:#181818;stroke-width:0.5;" width="71.3789" x="560.5" y="111.6094"/><line style="stroke:#181818;stroke-width:0.5;" x1="560.5" x2="631.8789" y1="139.2188" y2="139.2188"/><text fill="#000000" font-family="sans-serif" font-size="14" lengthAdjust="spacing" textLength="51.3789" x="570.5" y="131.1426">Pending</text></g><g id="InProgress"><rect fill="#F1F1F1" height="50" rx="12.5" ry="12.5" style="stroke:#181818;stroke-width:0.5;" width="87.6963" x="340" y="198.6094"/><line style="stroke:#181818;stroke-width:0.5;" x1="340" x2="427.6963" y1="226.2188" y2="226.2188"/><text fill="#000000" font-family="sans-serif" font-size="14" lengthAdjust="spacing" textLength="67.6963" x="350" y="218.1426">InProgress</text></g><g id="Review"><rect fill="#F1F1F1" height="50" rx="12.5" ry="12.5" style="stroke:#181818;stroke-width:0.5;" width="65.9033" x="322" y="304.6094"/><line style="stroke:#181818;stroke-width:0.5;" x1="322" x2="387.9033" y1="332.2188" y2="332.2188"/><text fill="#000000" font-family="sans-serif" font-size="14" lengthAdjust="spacing" textLength="45.9033" x="332" y="324.1426">Review</text></g><g id="Done"><rect fill="#F1F1F1" height="50" rx="12.5" ry="12.5" style="stroke:#181818;stroke-width:0.5;" width="53.4688" x="377.5" y="426.6094"/><line style="stroke:#181818;stroke-width:0.5;" x1="377.5" x2="430.9688" y1="454.2188" y2="454.2188"/><text fill="#000000" font-family="sans-serif" font-size="14" lengthAdjust="spacing" textLength="33.4688" x="387.5" y="446.1426">Done</text></g><g id="Blocked"><rect fill="#F1F1F1" height="50" rx="12.5" ry="12.5" style="stroke:#181818;stroke-width:0.5;" width="69.8066" x="234" y="304.6094"/><line style="stroke:#181818;stroke-width:0.5;" x1="234" x2="303.8066" y1="332.2188" y2="332.2188"/><text fill="#000000" font-family="sans-serif" font-size="14" lengthAdjust="spacing" textLength="49.8066" x="244" y="324.1426">Blocked</text></g><g id="Deferred"><rect fill="#F1F1F1" height="50" rx="12.5" ry="12.5" style="stroke:#181818;stroke-width:0.5;" width="74.4688" x="559" y="198.6094"/><line style="stroke:#181818;stroke-width:0.5;" x1="559" x2="633.4688" y1="226.2188" y2="226.2188"/><text fill="#000000" font-family="sans-serif" font-size="14" lengthAdjust="spacing" textLength="54.4688" x="569" y="218.1426">Deferred</text></g><g id="Cancelled"><rect fill="#F1F1F1" height="50" rx="12.5" ry="12.5" style="stroke:#181818;stroke-width:0.5;" width="82.2617" x="580" y="426.6094"/><line style="stroke:#181818;stroke-width:0.5;" x1="580" x2="662.2617" y1="454.2188" y2="454.2188"/><text fill="#000000" font-family="sans-serif" font-size="14" lengthAdjust="spacing" textLength="62.2617" x="590" y="446.1426">Cancelled</text></g><ellipse cx="567" cy="534.1094" fill="none" rx="11" ry="11" style="stroke:#222222;stroke-width:1;"/><ellipse cx="567" cy="534.1094" fill="#222222" rx="6" ry="6" style="stroke:#222222;stroke-width:1;"/><g id="elem_GMN2"><path d="M406,316.6094 L406,325.6094 L388.0469,329.6094 L406,333.6094 L406,342.9609 A0,0 0 0 0 406,342.9609 L664.4531,342.9609 A0,0 0 0 0 664.4531,342.9609 L664.4531,326.6094 L654.4531,316.6094 L406,316.6094 A0,0 0 0 0 406,316.6094 " fill="#FEFFDD" style="stroke:#181818;stroke-width:0.5;"/><path d="M654.4531,316.6094 L654.4531,326.6094 L664.4531,326.6094 L654.4531,316.6094 " fill="#FEFFDD" style="stroke:#181818;stroke-width:0.5;"/><text fill="#000000" font-family="sans-serif" font-size="13" lengthAdjust="spacing" textLength="237.4531" x="412" y="335.1045">&#1087;&#1086;&#1090;&#1086;&#1083;&#1086;&#1082; &#1072;&#1075;&#1077;&#1085;&#1090;&#1072; = Review (approve-gate)</text></g><g id="elem_GMN5"><path d="M279.5,513.6094 L279.5,556.3125 A0,0 0 0 0 279.5,556.3125 L528.8887,556.3125 A0,0 0 0 0 528.8887,556.3125 L528.8887,523.6094 L518.8887,513.6094 L408,513.6094 L404,476.6213 L400,513.6094 L279.5,513.6094 A0,0 0 0 0 279.5,513.6094 " fill="#FEFFDD" style="stroke:#181818;stroke-width:0.5;"/><path d="M518.8887,513.6094 L518.8887,523.6094 L528.8887,523.6094 L518.8887,513.6094 " fill="#FEFFDD" style="stroke:#181818;stroke-width:0.5;"/><text fill="#000000" font-family="sans-serif" font-size="13" lengthAdjust="spacing" textLength="228.3887" x="285.5" y="532.1045">effect: &#1079;&#1072;&#1082;&#1088;&#1099;&#1090;&#1100; &#1089;&#1074;&#1103;&#1079;&#1072;&#1085;&#1085;&#1099;&#1081; intake-issue</text><text fill="#000000" font-family="sans-serif" font-size="13" lengthAdjust="spacing" textLength="194.7397" x="285.5" y="548.4561">(&#1086;&#1073;&#1088;&#1072;&#1090;&#1085;&#1099;&#1081; &#1086;&#1073;&#1093;&#1086;&#1076; &#1087;&#1086; issue-&gt;task)</text></g><g id="elem_GMN8"><path d="M6,308.1094 L6,350.8125 A0,0 0 0 0 6,350.8125 L216.3696,350.8125 A0,0 0 0 0 216.3696,350.8125 L216.3696,333.6094 L233.9577,329.6094 L216.3696,325.6094 L216.3696,318.1094 L206.3696,308.1094 L6,308.1094 A0,0 0 0 0 6,308.1094 " fill="#FEFFDD" style="stroke:#181818;stroke-width:0.5;"/><path d="M206.3696,308.1094 L206.3696,318.1094 L216.3696,318.1094 L206.3696,308.1094 " fill="#FEFFDD" style="stroke:#181818;stroke-width:0.5;"/><text fill="#000000" font-family="sans-serif" font-size="13" lengthAdjust="spacing" textLength="145.2407" x="12" y="326.6045">&#1078;&#1080;&#1074;&#1105;&#1090; &#1090;&#1086;&#1083;&#1100;&#1082;&#1086; &#1087;&#1088;&#1080; &#1088;&#1077;&#1073;&#1088;&#1077;</text><text fill="#000000" font-family="sans-serif" font-size="13" lengthAdjust="spacing" textLength="189.3696" x="12" y="342.9561">&#171;task blocks task&#187; (&#1092;&#1072;&#1079;&#1072; &#1087;&#1086;&#1079;&#1078;&#1077;)</text></g><polygon fill="#181818" points="596,111.3338,600,102.3338,596,106.3338,592,102.3338,596,111.3338" style="stroke:#181818;stroke-width:1;"/><path d="M596,74.8594 C596,84.5889 596,92.9931 596,105.3338 " fill="none" style="stroke:#181818;stroke-width:1;"/><polygon fill="#181818" points="428.2405,204.8714,438.0827,205.2348,432.8814,203.0107,435.1055,197.8094,428.2405,204.8714" style="stroke:#181818;stroke-width:1;"/><path d="M560.0371,152.0285 C523.6519,166.6169 472.9078,186.9624 433.8095,202.6386 " fill="none" style="stroke:#181818;stroke-width:1;"/><polygon fill="#181818" points="388.1005,308.7342,397.9388,308.2784,392.5706,306.4943,394.3548,301.1261,388.1005,308.7342" style="stroke:#181818;stroke-width:1;"/><path d="M428.1638,240.769 C451.9512,252.019 473.8432,268.257 460,286.6094 C442.4638,309.8576 423.8362,293.3036 397,304.6094 C394.059,305.8484 396.43,304.5604 393.4647,306.0463 " fill="none" style="stroke:#181818;stroke-width:1;"/><polygon fill="#181818" points="352.9459,248.7126,343.9226,252.6598,349.5737,252.4042,349.8293,258.0553,352.9459,248.7126" style="stroke:#181818;stroke-width:1;"/><path d="M342.7757,304.4456 C338.526,292.7201 335.9463,278.6099 341,266.6094 C343.7541,260.0695 344.0324,258.4706 348.8993,253.1426 " fill="none" style="stroke:#181818;stroke-width:1;"/><text fill="#000000" font-family="sans-serif" font-size="13" lengthAdjust="spacing" textLength="111.4077" x="343" y="282.1045">reject (&#1089; &#1087;&#1088;&#1080;&#1095;&#1080;&#1085;&#1086;&#1081;)</text><polygon fill="#181818" points="394.0989,426.3617,394.3997,416.5174,392.2087,421.7327,386.9934,419.5417,394.0989,426.3617" style="stroke:#181818;stroke-width:1;"/><path d="M364.9159,354.8932 C373.4172,375.7126 383.3337,399.9979 391.8307,420.8069 " fill="none" style="stroke:#181818;stroke-width:1;"/><text fill="#000000" font-family="sans-serif" font-size="13" lengthAdjust="spacing" textLength="108.7607" x="389" y="388.1045">guard = maintainer</text><text fill="#000000" font-family="sans-serif" font-size="13" lengthAdjust="spacing" textLength="104.3237" x="391.2185" y="404.4561">(&#1072;&#1075;&#1077;&#1085;&#1090; &#1053;&#1045; &#1084;&#1086;&#1078;&#1077;&#1090;)</text><polygon fill="#181818" points="285.995,304.4888,295.1508,300.8594,289.4942,300.9173,289.4363,295.2607,285.995,304.4888" style="stroke:#181818;stroke-width:1;"/><path d="M346.5628,248.8222 C339.5938,254.5931 332.5042,260.7723 326,266.6094 C312.3105,278.8947 301.5472,288.615 290.194,300.203 " fill="none" style="stroke:#181818;stroke-width:1;"/><polygon fill="#181818" points="364.0537,248.8222,354.677,251.8352,360.3249,252.1533,360.0068,257.8012,364.0537,248.8222" style="stroke:#181818;stroke-width:1;"/><path d="M302.2767,304.4888 C315.3482,292.9009 330.3105,278.8947 344,266.6094 C350.5042,260.7723 353.1193,258.5905 359.5792,252.8196 " fill="none" style="stroke:#181818;stroke-width:1;"/><polygon fill="#181818" points="589.8408,198.4188,593.2149,189.166,589.4983,193.4306,585.2337,189.7139,589.8408,198.4188" style="stroke:#181818;stroke-width:1;"/><path d="M589.8449,161.7396 C589.0531,173.2247 588.6407,180.9401 589.4298,192.4329 " fill="none" style="stroke:#181818;stroke-width:1;"/><polygon fill="#181818" points="602.1551,161.7396,598.7836,170.9934,602.499,166.7278,606.7646,170.4432,602.1551,161.7396" style="stroke:#181818;stroke-width:1;"/><path d="M602.1592,198.4188 C602.9483,186.926 603.3596,179.2105 602.5678,167.7254 " fill="none" style="stroke:#181818;stroke-width:1;"/><polygon fill="#181818" points="662.2796,427.148,671.8101,424.6641,666.1888,424.0306,666.8223,418.4094,662.2796,427.148" style="stroke:#181818;stroke-width:1;"/><path d="M616.5492,161.8582 C641.0265,192.6504 680.2146,248.5466 693,304.6094 C703.3573,350.0253 706.0787,370.0117 680,408.6094 C675.2838,415.5896 673.686,418.0521 666.9707,423.4072 " fill="none" style="stroke:#181818;stroke-width:1;"/><polygon fill="#181818" points="642.5273,426.4695,651.2842,421.9619,645.6604,422.5728,645.0495,416.9491,642.5273,426.4695" style="stroke:#181818;stroke-width:1;"/><path d="M428.0681,230.3004 C501.3993,240.7743 643.3696,265.6625 673,304.6094 C701.266,341.7629 671.0931,390.9412 646.287,421.7935 " fill="none" style="stroke:#181818;stroke-width:1;"/><polygon fill="#181818" points="591.891,426.3428,587.2362,417.6634,587.942,423.2761,582.3293,423.9819,591.891,426.3428" style="stroke:#181818;stroke-width:1;"/><path d="M388.4352,351.062 C391.2769,352.3838 394.1535,353.5907 397,354.6094 C441.9911,370.7107 458.5553,355.056 503,372.6094 C535.8902,385.5993 564.376,404.9751 587.1522,422.6627 " fill="none" style="stroke:#181818;stroke-width:1;"/><polygon fill="#181818" points="555.8941,525.8553,550.8813,517.3775,551.8206,522.9559,546.2422,523.8951,555.8941,525.8553" style="stroke:#181818;stroke-width:1;"/><path d="M430.6458,463.2575 C457.9741,474.5387 501.4007,493.4746 537,513.6094 C543.4791,517.2739 545.471,518.4364 551.0059,522.376 " fill="none" style="stroke:#181818;stroke-width:1;"/><polygon fill="#181818" points="574.5582,522.7021,582.8637,517.4088,577.3199,518.534,576.1948,512.9901,574.5582,522.7021" style="stroke:#181818;stroke-width:1;"/><path d="M605.0903,476.6213 C595.0104,491.8344 585.7486,505.8129 577.8722,517.7004 " fill="none" style="stroke:#181818;stroke-width:1;"/><!--SRC=[TLAzJWCn3DxlASpMGxeNGA83iB0XLc18Mzznz9fKkHmL4WDK80QGW86H9s0fForjeKNY2PmtmaaFMbLYIE8uZlrzdxtIrY9f2SZ4YIeCv2qqGeh0f2P3e3jwiLsQqYVrR1SwIZSZUgSUlV7zYePGYL6OGkDfhKZ2O6_r0AAe2Zie6wbCWlBqlcsverMYCS-3kUbVTl4unKumEvPYOGqq7c7TGCMU0ttPCngwmZHXKADmyTEMaiZXII5q0zQX9L9fUA7UbnL6_4fzcZ07UgG7O3vJ6b3VTiDbD1kPgZUn4PJdClP5IbiOezOS-slyItvJo3fc6OSkLPi_B32PEpqdvs9bWp_tdqSgWw3JvD20YaiTMGBwegdlsWUlCSp9Ku-5ASCgejtMwXYZH1WCPwbgoXZLShbACJ6EMNlEw7e-jcVssdRj3TXp7ejRxvnmtciQWHExYL6QvmKwmQVqpBtYeIdVlUEIzpSF3tnWL3KYRvR5CumzZL_XkUg06_rYxxbhCphsXiRyTpO6m5lVL-dlo-ydbmbgxcyEplx-u96vO8ICqfTaWpiU_W00]--></g></svg>