<svg xmlns="http://www.w3.org/2000/svg" xmlns:xlink="http://www.w3.org/1999/xlink" contentStyleType="text/css" height="441px" preserveAspectRatio="none" style="width:595px;height:441px;background:#FFFFFF;" version="1.1" viewBox="0 0 595 441" width="595px" zoomAndPan="magnify"><title>&#1040;&#1074;&#1090;&#1086;&#1084;&#1072;&#1090; &#1080;&#1076;&#1077;&#1080; (ideas)</title><defs/><g><text fill="#000000" font-family="sans-serif" font-size="14" font-weight="bold" lengthAdjust="spacing" textLength="145.9131" x="220.7935" y="24.5332">&#1040;&#1074;&#1090;&#1086;&#1084;&#1072;&#1090; &#1080;&#1076;&#1077;&#1080; (ideas)</text><ellipse cx="218.5" cy="60.6094" fill="#222222" rx="10" ry="10" style="stroke:#222222;stroke-width:1;"/><g id="Raw"><rect fill="#F1F1F1" height="50" rx="12.5" ry="12.5" style="stroke:#181818;stroke-width:0.5;" width="50" x="193.5" y="111.6094"/><line style="stroke:#181818;stroke-width:0.5;" x1="193.5" x2="243.5" y1="139.2188" y2="139.2188"/><text fill="#000000" font-family="sans-serif" font-size="14" lengthAdjust="spacing" textLength="28.0068" x="204.4966" y="131.1426">Raw</text></g><g id="Exploring"><rect fill="#F1F1F1" height="50" rx="12.5" ry="12.5" style="stroke:#181818;stroke-width:0.5;" width="78.3652" x="179.5" y="198.6094"/><line style="stroke:#181818;stroke-width:0.5;" x1="179.5" x2="257.8652" y1="226.2188" y2="226.2188"/><text fill="#000000" font-family="sans-serif" font-size="14" lengthAdjust="spacing" textLength="58.3652" x="189.5" y="218.1426">Exploring</text></g><g id="Rejected"><rect fill="#F1F1F1" height="50" rx="12.5" ry="12.5" style="stroke:#181818;stroke-width:0.5;" width="75.2549" x="86" y="304.6094"/><line style="stroke:#181818;stroke-width:0.5;" x1="86" x2="161.2549" y1="332.2188" y2="332.2188"/><text fill="#000000" font-family="sans-serif" font-size="14" lengthAdjust="spacing" textLength="55.2549" x="96" y="324.1426">Rejected</text></g><g id="Deferred"><rect fill="#F1F1F1" height="50" rx="12.5" ry="12.5" style="stroke:#181818;stroke-width:0.5;" width="74.4688" x="180.5" y="304.6094"/><line style="stroke:#181818;stroke-width:0.5;" x1="180.5" x2="254.9688" y1="332.2188" y2="332.2188"/><text fill="#000000" font-family="sans-serif" font-size="14" lengthAdjust="spacing" textLength="54.4688" x="190.5" y="324.1426">Deferred</text></g><g id="Accepted"><rect fill="#F1F1F1" height="50" rx="12.5" ry="12.5" style="stroke:#181818;stroke-width:0.5;" width="78.3721" x="272.5" y="304.6094"/><line style="stroke:#181818;stroke-width:0.5;" x1="272.5" x2="350.8721" y1="332.2188" y2="332.2188"/><text fill="#000000" font-family="sans-serif" font-size="14" lengthAdjust="spacing" textLength="58.3721" x="282.5" y="324.1426">Accepted</text></g><ellipse cx="280.5" cy="412.1094" fill="none" rx="11" ry="11" style="stroke:#222222;stroke-width:1;"/><ellipse cx="280.5" cy="412.1094" fill="#222222" rx="6" ry="6" style="stroke:#222222;stroke-width:1;"/><g id="elem_GMN2"><path d="M368.5,308.1094 L368.5,325.6094 L350.6406,329.6094 L368.5,333.6094 L368.5,350.8125 A0,0 0 0 0 368.5,350.8125 L588.4482,350.8125 A0,0 0 0 0 588.4482,350.8125 L588.4482,318.1094 L578.4482,308.1094 L368.5,308.1094 A0,0 0 0 0 368.5,308.1094 " fill="#FEFFDD" style="stroke:#181818;stroke-width:0.5;"/><path d="M578.4482,308.1094 L578.4482,318.1094 L588.4482,318.1094 L578.4482,308.1094 " fill="#FEFFDD" style="stroke:#181818;stroke-width:0.5;"/><text fill="#000000" font-family="sans-serif" font-size="13" lengthAdjust="spacing" textLength="142.9556" x="374.5" y="326.6045">effect: &#1088;&#1077;&#1073;&#1088;&#1086; idea-&gt;spec</text><text fill="#000000" font-family="sans-serif" font-size="13" lengthAdjust="spacing" textLength="198.9482" x="374.5" y="342.9561">(&#1089;&#1086;&#1079;&#1076;&#1072;&#1090;&#1100;/&#1091;&#1090;&#1086;&#1095;&#1085;&#1080;&#1090;&#1100; &#1074;&#1077;&#1088;&#1089;&#1080;&#1102; &#1089;&#1087;&#1077;&#1082;&#1080;)</text></g><g id="elem_GMN5"><path d="M6,391.6094 L6,434.3125 A0,0 0 0 0 6,434.3125 L240.5732,434.3125 A0,0 0 0 0 240.5732,434.3125 L240.5732,401.6094 L230.5732,391.6094 L127.5,391.6094 L123.5,354.6213 L119.5,391.6094 L6,391.6094 A0,0 0 0 0 6,391.6094 " fill="#FEFFDD" style="stroke:#181818;stroke-width:0.5;"/><path d="M230.5732,391.6094 L230.5732,401.6094 L240.5732,401.6094 L230.5732,391.6094 " fill="#FEFFDD" style="stroke:#181818;stroke-width:0.5;"/><text fill="#000000" font-family="sans-serif" font-size="13" lengthAdjust="spacing" textLength="107.7642" x="12" y="410.1045">&#1086;&#1089;&#1090;&#1072;&#1105;&#1090;&#1089;&#1103; &#1079;&#1072;&#1087;&#1080;&#1089;&#1100;&#1102;</text><text fill="#000000" font-family="sans-serif" font-size="13" lengthAdjust="spacing" textLength="213.5732" x="12" y="426.4561">&#171;&#1088;&#1072;&#1089;&#1089;&#1084;&#1086;&#1090;&#1088;&#1077;&#1085;&#1086;, &#1086;&#1090;&#1082;&#1083;&#1086;&#1085;&#1077;&#1085;&#1086;: &#1087;&#1086;&#1095;&#1077;&#1084;&#1091;&#187;</text></g><polygon fill="#181818" points="218.5,111.3338,222.5,102.3338,218.5,106.3338,214.5,102.3338,218.5,111.3338" style="stroke:#181818;stroke-width:1;"/><path d="M218.5,74.8594 C218.5,84.5889 218.5,92.9931 218.5,105.3338 " fill="none" style="stroke:#181818;stroke-width:1;"/><polygon fill="#181818" points="218.5,198.4188,222.5,189.4188,218.5,193.4188,214.5,189.4188,218.5,198.4188" style="stroke:#181818;stroke-width:1;"/><path d="M218.5,161.7396 C218.5,173.2247 218.5,180.926 218.5,192.4188 " fill="none" style="stroke:#181818;stroke-width:1;"/><polygon fill="#181818" points="126.9486,304.509,132.8177,296.5999,128.0406,299.6297,125.0109,294.8527,126.9486,304.509" style="stroke:#181818;stroke-width:1;"/><path d="M179.4249,239.5278 C166.4677,246.1291 152.9553,255.0634 143.5,266.6094 C134.686,277.3723 131.0351,286.2503 128.2591,298.6539 " fill="none" style="stroke:#181818;stroke-width:1;"/><text fill="#000000" font-family="sans-serif" font-size="13" lengthAdjust="spacing" textLength="67.3486" x="145.5" y="282.1045">&#1089; &#1087;&#1088;&#1080;&#1095;&#1080;&#1085;&#1086;&#1081;</text><polygon fill="#181818" points="211.9161,304.2588,215.324,295.0183,211.5918,299.2694,207.3408,295.5372,211.9161,304.2588" style="stroke:#181818;stroke-width:1;"/><path d="M212.4673,248.7305 C211.047,265.4119 210.4395,281.5405 211.527,298.2715 " fill="none" style="stroke:#181818;stroke-width:1;"/><polygon fill="#181818" points="289.725,304.2588,286.7074,294.8836,286.3921,300.5317,280.744,300.2163,289.725,304.2588" style="stroke:#181818;stroke-width:1;"/><path d="M240.0698,248.7305 C254.9869,265.4119 270.7641,283.0553 285.7255,299.7863 " fill="none" style="stroke:#181818;stroke-width:1;"/><polygon fill="#181818" points="224.0688,248.7305,220.6694,257.974,224.3977,253.7196,228.6521,257.4479,224.0688,248.7305" style="stroke:#181818;stroke-width:1;"/><path d="M223.5521,304.2588 C224.9614,287.5279 225.5629,271.3989 224.4634,254.7175 " fill="none" style="stroke:#181818;stroke-width:1;"/><polygon fill="#181818" points="269.2586,404.1206,264.0984,395.7317,265.135,401.2928,259.574,402.3294,269.2586,404.1206" style="stroke:#181818;stroke-width:1;"/><path d="M161.1949,349.5491 C164.6743,351.2694 168.1496,352.9773 171.5,354.6094 C205.9944,371.4121 216.0811,372.758 249.5,391.6094 C256.2438,395.4135 258.5285,396.7623 264.3103,400.7272 " fill="none" style="stroke:#181818;stroke-width:1;"/><polygon fill="#181818" points="284.839,400.7021,291.7773,393.7121,286.6166,396.0287,284.3,390.868,284.839,400.7021" style="stroke:#181818;stroke-width:1;"/><path d="M302.3666,354.6213 C296.5801,369.8344 291.4937,383.2066 286.9721,395.0941 " fill="none" style="stroke:#181818;stroke-width:1;"/><!--SRC=[NP7DJeDG48NtFCMuQut4lOic9le2RgsBAnqgXWAXrwYxqYxSD5MVmmqs4j7-aFG9Pjx8GviIqmNatiFCD-SCHqbg-WD3eNcE7omD1snDP1mRs919tcIkOrdBKd8TavJo9OMKr0fwR8Pjv_huXbotGrVcqS6pFLy-9M6S1b7VQKwx6hvdptAFpaWpaaf7KkeBa2lmVmwABzZdDENUWNpkUPo0uUo_7qniPjGop3dxXaQ8OikK1lqxIx7VyE29VH-jy3P2ma-yrrI7T3l3XBrkrD8CDh-H7ulGwQbEwht0_mef893CfT0HgagT8Q1KmFnAsTvDl8sjZGVro7zhG7y6Igxl86JwIk3dQ2nncUgi6sq-u2F7BSCFMAEezePrdTIjO-0NyBJQQS1LMqE5B7MoMVm1]--></g></svg>