<svg xmlns="http://www.w3.org/2000/svg" xmlns:xlink="http://www.w3.org/1999/xlink" contentStyleType="text/css" height="555px" preserveAspectRatio="none" style="width:539px;height:555px;background:#FFFFFF;" version="1.1" viewBox="0 0 539 555" width="539px" zoomAndPan="magnify"><title>&#1040;&#1074;&#1090;&#1086;&#1084;&#1072;&#1090; issue (intake)</title><defs/><g><text fill="#000000" font-family="sans-serif" font-size="14" font-weight="bold" lengthAdjust="spacing" textLength="152.4893" x="175.7554" y="24.5332">&#1040;&#1074;&#1090;&#1086;&#1084;&#1072;&#1090; issue (intake)</text><ellipse cx="385.5" cy="60.6094" fill="#222222" rx="10" ry="10" style="stroke:#222222;stroke-width:1;"/><g id="Reported"><rect fill="#F1F1F1" height="50" rx="12.5" ry="12.5" style="stroke:#181818;stroke-width:0.5;" width="77.5928" x="346.5" y="111.6094"/><line style="stroke:#181818;stroke-width:0.5;" x1="346.5" x2="424.0928" y1="139.2188" y2="139.2188"/><text fill="#000000" font-family="sans-serif" font-size="14" lengthAdjust="spacing" textLength="57.5928" x="356.5" y="131.1426">Reported</text></g><g id="Triage"><rect fill="#F1F1F1" height="50" rx="12.5" ry="12.5" style="stroke:#181818;stroke-width:0.5;" width="59.6826" x="355.5" y="198.6094"/><line style="stroke:#181818;stroke-width:0.5;" x1="355.5" x2="415.1826" y1="226.2188" y2="226.2188"/><text fill="#000000" font-family="sans-serif" font-size="14" lengthAdjust="spacing" textLength="39.6826" x="365.5" y="218.1426">Triage</text></g><g id="Confirmed"><rect fill="#F1F1F1" height="50" rx="12.5" ry="12.5" style="stroke:#181818;stroke-width:0.5;" width="84.5791" x="6" y="304.6094"/><line style="stroke:#181818;stroke-width:0.5;" x1="6" x2="90.5791" y1="332.2188" y2="332.2188"/><text fill="#000000" font-family="sans-serif" font-size="14" lengthAdjust="spacing" textLength="64.5791" x="16" y="324.1426">Confirmed</text></g><g id="Duplicate"><rect fill="#F1F1F1" height="50" rx="12.5" ry="12.5" style="stroke:#181818;stroke-width:0.5;" width="78.3652" x="346.5" y="372.6094"/><line style="stroke:#181818;stroke-width:0.5;" x1="346.5" x2="424.8652" y1="400.2188" y2="400.2188"/><text fill="#000000" font-family="sans-serif" font-size="14" lengthAdjust="spacing" textLength="58.3652" x="356.5" y="392.1426">Duplicate</text></g><g id="WontFix"><rect fill="#F1F1F1" height="50" rx="12.5" ry="12.5" style="stroke:#181818;stroke-width:0.5;" width="71.3379" x="434" y="372.6094"/><line style="stroke:#181818;stroke-width:0.5;" x1="434" x2="505.3379" y1="400.2188" y2="400.2188"/><text fill="#000000" font-family="sans-serif" font-size="14" lengthAdjust="spacing" textLength="51.3379" x="444" y="392.1426">WontFix</text></g><g id="Done"><rect fill="#F1F1F1" height="50" rx="12.5" ry="12.5" style="stroke:#181818;stroke-width:0.5;" width="53.4688" x="184" y="440.6094"/><line style="stroke:#181818;stroke-width:0.5;" x1="184" x2="237.4688" y1="468.2188" y2="468.2188"/><text fill="#000000" font-family="sans-serif" font-size="14" lengthAdjust="spacing" textLength="33.4688" x="194" y="460.1426">Done</text></g><ellipse cx="385.5" cy="538.6094" fill="none" rx="11" ry="11" style="stroke:#222222;stroke-width:1;"/><ellipse cx="385.5" cy="538.6094" fill="#222222" rx="6" ry="6" style="stroke:#222222;stroke-width:1;"/><g id="elem_GMN2"><path d="M109.5,308.1094 L109.5,325.6094 L91.1367,329.6094 L109.5,333.6094 L109.5,350.8125 A0,0 0 0 0 109.5,350.8125 L357.1558,350.8125 A0,0 0 0 0 357.1558,350.8125 L357.1558,318.1094 L347.1558,308.1094 L109.5,308.1094 A0,0 0 0 0 109.5,308.1094 " fill="#FEFFDD" style="stroke:#181818;stroke-width:0.5;"/><path d="M347.1558,308.1094 L347.1558,318.1094 L357.1558,318.1094 L347.1558,308.1094 " fill="#FEFFDD" style="stroke:#181818;stroke-width:0.5;"/><text fill="#000000" font-family="sans-serif" font-size="13" lengthAdjust="spacing" textLength="226.6558" x="115.5" y="326.6045">&#1087;&#1088;&#1086;&#1084;&#1086;&#1091;&#1090;: &#1089;&#1086;&#1079;&#1076;&#1072;&#1090;&#1100; feature/bug &#1085;&#1072; work,</text><text fill="#000000" font-family="sans-serif" font-size="13" lengthAdjust="spacing" textLength="106.0884" x="115.5" y="342.9561">&#1088;&#1077;&#1073;&#1088;&#1086; issue-&gt;task</text></g><polygon fill="#181818" points="385.5,111.3338,389.5,102.3338,385.5,106.3338,381.5,102.3338,385.5,111.3338" style="stroke:#181818;stroke-width:1;"/><path d="M385.5,74.8594 C385.5,84.5889 385.5,92.9931 385.5,105.3338 " fill="none" style="stroke:#181818;stroke-width:1;"/><polygon fill="#181818" points="385.5,198.4188,389.5,189.4188,385.5,193.4188,381.5,189.4188,385.5,198.4188" style="stroke:#181818;stroke-width:1;"/><path d="M385.5,161.7396 C385.5,173.2247 385.5,180.926 385.5,192.4188 " fill="none" style="stroke:#181818;stroke-width:1;"/><polygon fill="#181818" points="91.1219,308.2854,100.9673,308.5475,95.7434,306.377,97.9138,301.1531,91.1219,308.2854" style="stroke:#181818;stroke-width:1;"/><path d="M355.4654,231.3762 C302.9559,243.5725 191.3987,271.1159 100.5,304.6094 C97.4212,305.7438 99.8178,304.6945 96.6677,305.9954 " fill="none" style="stroke:#181818;stroke-width:1;"/><polygon fill="#181818" points="385.5,372.4543,389.5,363.4543,385.5,367.4543,381.5,363.4543,385.5,372.4543" style="stroke:#181818;stroke-width:1;"/><path d="M385.5,248.888 C385.5,281.6689 385.5,333.7371 385.5,366.4543 " fill="none" style="stroke:#181818;stroke-width:1;"/><text fill="#000000" font-family="sans-serif" font-size="13" lengthAdjust="spacing" textLength="61.6675" x="387.5" y="282.1045">&#1088;&#1077;&#1073;&#1088;&#1086; dup</text><polygon fill="#181818" points="471.9133,372.5043,476.4113,363.7426,472.1935,367.5122,468.4239,363.2943,471.9133,372.5043" style="stroke:#181818;stroke-width:1;"/><path d="M415.8296,236.8368 C428.8849,243.6565 443.0607,253.4668 451.5,266.6094 C472.1829,298.8189 473.8076,338.7492 472.2495,366.5138 " fill="none" style="stroke:#181818;stroke-width:1;"/><text fill="#000000" font-family="sans-serif" font-size="13" lengthAdjust="spacing" textLength="67.3486" x="463.5" y="282.1045">&#1089; &#1087;&#1088;&#1080;&#1095;&#1080;&#1085;&#1086;&#1081;</text><polygon fill="#181818" points="183.8793,454.0867,177.2427,446.8096,179.3001,452.0791,174.0306,454.1364,183.8793,454.0867" style="stroke:#181818;stroke-width:1;"/><path d="M65.4306,354.8003 C80.3312,374.8161 103.5002,403.038 128.5,422.6094 C145.3766,435.8214 161.5573,444.3004 178.3842,451.6776 " fill="none" style="stroke:#181818;stroke-width:1;"/><text fill="#000000" font-family="sans-serif" font-size="13" lengthAdjust="spacing" textLength="205.188" x="130.5" y="395.1045">&#1092;&#1072;&#1077;&#1088;&#1080;&#1090; &#1069;&#1060;&#1060;&#1045;&#1050;&#1058; &#1089;&#1086; &#1089;&#1090;&#1086;&#1088;&#1086;&#1085;&#1099; work</text><text fill="#000000" font-family="sans-serif" font-size="13" lengthAdjust="spacing" textLength="182.5967" x="141.7957" y="411.4561">(&#1082;&#1086;&#1075;&#1076;&#1072; &#1089;&#1074;&#1103;&#1079;&#1072;&#1085;&#1085;&#1099;&#1081; &#1073;&#1072;&#1075; -&gt; Done)</text><polygon fill="#181818" points="385.5,527.5398,389.5,518.5398,385.5,522.5398,381.5,518.5398,385.5,527.5398" style="stroke:#181818;stroke-width:1;"/><path d="M385.5,422.6762 C385.5,453.3227 385.5,498.9997 385.5,521.5398 " fill="none" style="stroke:#181818;stroke-width:1;"/><polygon fill="#181818" points="392.1418,527.5398,400.2022,521.8803,394.7143,523.2523,393.3423,517.7643,392.1418,527.5398" style="stroke:#181818;stroke-width:1;"/><path d="M455.0599,422.6762 C436.672,453.3227 408.7528,499.8547 395.2287,522.3948 " fill="none" style="stroke:#181818;stroke-width:1;"/><polygon fill="#181818" points="374.4452,534.0611,367.644,526.9376,369.8212,532.1587,364.6001,534.3359,374.4452,534.0611" style="stroke:#181818;stroke-width:1;"/><path d="M237.0787,477.5446 C276.0903,493.5951 341.6274,520.5589 368.8964,531.7782 " fill="none" style="stroke:#181818;stroke-width:1;"/><!--SRC=[JL6zJiCm6Dpz51zRYuZOEtG1yG08YO4o6Ee4gwqTEOw0ZGOa1f1WOM54h4ZfdsWHBQ_m-Otux18QMR9zdqvtv_DMQdWouD3drpgta0s4vOepAsrV03xZs1MumcyiNG4oot813QaixuacEza-XIXgmw58jR6YowfBc1uPoHF1raUOx6aLIpCWOcsudwTzUSwjW1Qu6vpXYFOLTFEqpZhMoXx8AyyP0luGPUxkSOvBohPW_y9hHQs2s1sME0lC0l03tsczu2k-aGGPkA5_cFV2fNk0Isrw7TN0By8Jd6BfMMFtX9-ailGKN02E24pWpwF9DjczBzN1gfmL3bage3GnZKmkBEXuqmPb3I_oBQ_ShIjQ8I4vJtthxX5YmMrknEvPdW25AKFQdOwgzHM-9cfRdlL-0G00]--></g></svg>