<svg xmlns="http://www.w3.org/2000/svg" xmlns:xlink="http://www.w3.org/1999/xlink" contentStyleType="text/css" height="509px" preserveAspectRatio="none" style="width:834px;height:509px;background:#FFFFFF;" version="1.1" viewBox="0 0 834 509" width="834px" zoomAndPan="magnify"><title>&#1057;&#1094;&#1077;&#1085;&#1072;&#1088;&#1080;&#1081;: &#1082;&#1088;&#1086;&#1089;&#1089;-&#1073;&#1086;&#1088;&#1076;&#1085;&#1099;&#1081; &#1101;&#1092;&#1092;&#1077;&#1082;&#1090; &#1072;&#1074;&#1090;&#1086;-&#1079;&#1072;&#1082;&#1088;&#1099;&#1090;&#1080;&#1103;</title><defs/><g><text fill="#000000" font-family="sans-serif" font-size="14" font-weight="bold" lengthAdjust="spacing" textLength="349.0771" x="244.1902" y="29.5332">&#1057;&#1094;&#1077;&#1085;&#1072;&#1088;&#1080;&#1081;: &#1082;&#1088;&#1086;&#1089;&#1089;-&#1073;&#1086;&#1088;&#1076;&#1085;&#1099;&#1081; &#1101;&#1092;&#1092;&#1077;&#1082;&#1090; &#1072;&#1074;&#1090;&#1086;-&#1079;&#1072;&#1082;&#1088;&#1099;&#1090;&#1080;&#1103;</text><line style="stroke:#181818;stroke-width:0.5;stroke-dasharray:5.0,5.0;" x1="26" x2="26" y1="121.2188" y2="427.3828"/><line style="stroke:#181818;stroke-width:0.5;stroke-dasharray:5.0,5.0;" x1="92.5859" x2="92.5859" y1="121.2188" y2="427.3828"/><line style="stroke:#181818;stroke-width:0.5;stroke-dasharray:5.0,5.0;" x1="229.0503" x2="229.0503" y1="121.2188" y2="427.3828"/><line style="stroke:#181818;stroke-width:0.5;stroke-dasharray:5.0,5.0;" x1="288.188" x2="288.188" y1="121.2188" y2="427.3828"/><line style="stroke:#181818;stroke-width:0.5;stroke-dasharray:5.0,5.0;" x1="523.146" x2="523.146" y1="121.2188" y2="427.3828"/><line style="stroke:#181818;stroke-width:0.5;stroke-dasharray:5.0,5.0;" x1="792.7749" x2="792.7749" y1="121.2188" y2="427.3828"/><text fill="#000000" font-family="sans-serif" font-size="14" lengthAdjust="spacing" textLength="36.5859" x="5" y="118.1426">Agent</text><ellipse cx="26.293" cy="52.1094" fill="#E2E2F0" rx="8" ry="8" style="stroke:#181818;stroke-width:0.5;"/><path d="M26.293,60.1094 L26.293,87.1094 M13.293,68.1094 L39.293,68.1094 M26.293,87.1094 L13.293,102.1094 M26.293,87.1094 L39.293,102.1094 " fill="none" style="stroke:#181818;stroke-width:0.5;"/><text fill="#000000" font-family="sans-serif" font-size="14" lengthAdjust="spacing" textLength="36.5859" x="5" y="440.916">Agent</text><ellipse cx="26.293" cy="452.4922" fill="#E2E2F0" rx="8" ry="8" style="stroke:#181818;stroke-width:0.5;"/><path d="M26.293,460.4922 L26.293,487.4922 M13.293,468.4922 L39.293,468.4922 M26.293,487.4922 L13.293,502.4922 M26.293,487.4922 L39.293,502.4922 " fill="none" style="stroke:#181818;stroke-width:0.5;"/><text fill="#000000" font-family="sans-serif" font-size="14" lengthAdjust="spacing" textLength="65.3652" x="57.5859" y="118.1426">Maintainer</text><ellipse cx="93.2686" cy="52.1094" fill="#E2E2F0" rx="8" ry="8" style="stroke:#181818;stroke-width:0.5;"/><path d="M93.2686,60.1094 L93.2686,87.1094 M80.2686,68.1094 L106.2686,68.1094 M93.2686,87.1094 L80.2686,102.1094 M93.2686,87.1094 L106.2686,102.1094 " fill="none" style="stroke:#181818;stroke-width:0.5;"/><text fill="#000000" font-family="sans-serif" font-size="14" lengthAdjust="spacing" textLength="65.3652" x="57.5859" y="440.916">Maintainer</text><ellipse cx="93.2686" cy="452.4922" fill="#E2E2F0" rx="8" ry="8" style="stroke:#181818;stroke-width:0.5;"/><path d="M93.2686,460.4922 L93.2686,487.4922 M80.2686,468.4922 L106.2686,468.4922 M93.2686,487.4922 L80.2686,502.4922 M93.2686,487.4922 L106.2686,502.4922 " fill="none" style="stroke:#181818;stroke-width:0.5;"/><rect fill="#E2E2F0" height="31.6094" rx="2.5" ry="2.5" style="stroke:#181818;stroke-width:0.5;" width="52.1377" x="203.0503" y="88.6094"/><text fill="#000000" font-family="sans-serif" font-size="14" lengthAdjust="spacing" textLength="38.1377" x="210.0503" y="110.1426">Intake</text><rect fill="#E2E2F0" height="31.6094" rx="2.5" ry="2.5" style="stroke:#181818;stroke-width:0.5;" width="52.1377" x="203.0503" y="426.3828"/><text fill="#000000" font-family="sans-serif" font-size="14" lengthAdjust="spacing" textLength="38.1377" x="210.0503" y="447.916">Intake</text><rect fill="#E2E2F0" height="31.6094" rx="2.5" ry="2.5" style="stroke:#181818;stroke-width:0.5;" width="46.6621" x="265.188" y="88.6094"/><text fill="#000000" font-family="sans-serif" font-size="14" lengthAdjust="spacing" textLength="32.6621" x="272.188" y="110.1426">Work</text><rect fill="#E2E2F0" height="31.6094" rx="2.5" ry="2.5" style="stroke:#181818;stroke-width:0.5;" width="46.6621" x="265.188" y="426.3828"/><text fill="#000000" font-family="sans-serif" font-size="14" lengthAdjust="spacing" textLength="32.6621" x="272.188" y="447.916">Work</text><text fill="#000000" font-family="sans-serif" font-size="14" lengthAdjust="spacing" textLength="58.3652" x="491.146" y="118.1426">Relations</text><path d="M505.3286,67.6094 C505.3286,57.6094 523.3286,57.6094 523.3286,57.6094 C523.3286,57.6094 541.3286,57.6094 541.3286,67.6094 L541.3286,93.6094 C541.3286,103.6094 523.3286,103.6094 523.3286,103.6094 C523.3286,103.6094 505.3286,103.6094 505.3286,93.6094 L505.3286,67.6094 " fill="#E2E2F0" style="stroke:#181818;stroke-width:1.5;"/><path d="M505.3286,67.6094 C505.3286,77.6094 523.3286,77.6094 523.3286,77.6094 C523.3286,77.6094 541.3286,77.6094 541.3286,67.6094 " fill="none" style="stroke:#181818;stroke-width:1.5;"/><text fill="#000000" font-family="sans-serif" font-size="14" lengthAdjust="spacing" textLength="58.3652" x="491.146" y="440.916">Relations</text><path d="M505.3286,453.9922 C505.3286,443.9922 523.3286,443.9922 523.3286,443.9922 C523.3286,443.9922 541.3286,443.9922 541.3286,453.9922 L541.3286,479.9922 C541.3286,489.9922 523.3286,489.9922 523.3286,489.9922 C523.3286,489.9922 505.3286,489.9922 505.3286,479.9922 L505.3286,453.9922 " fill="#E2E2F0" style="stroke:#181818;stroke-width:1.5;"/><path d="M505.3286,453.9922 C505.3286,463.9922 523.3286,463.9922 523.3286,463.9922 C523.3286,463.9922 541.3286,463.9922 541.3286,453.9922 " fill="none" style="stroke:#181818;stroke-width:1.5;"/><text fill="#000000" font-family="sans-serif" font-size="14" lengthAdjust="spacing" textLength="74.6826" x="752.7749" y="118.1426">FSM effects</text><ellipse cx="793.1162" cy="87.6094" fill="#E2E2F0" rx="12" ry="12" style="stroke:#181818;stroke-width:0.5;"/><polygon fill="#181818" points="789.1162,75.6094,795.1162,70.6094,793.1162,75.6094,795.1162,80.6094,789.1162,75.6094" style="stroke:#181818;stroke-width:1;"/><text fill="#000000" font-family="sans-serif" font-size="14" lengthAdjust="spacing" textLength="74.6826" x="752.7749" y="440.916">FSM effects</text><ellipse cx="793.1162" cy="459.9922" fill="#E2E2F0" rx="12" ry="12" style="stroke:#181818;stroke-width:0.5;"/><polygon fill="#181818" points="789.1162,447.9922,795.1162,442.9922,793.1162,447.9922,795.1162,452.9922,789.1162,447.9922" style="stroke:#181818;stroke-width:1;"/><polygon fill="#181818" points="217.1191,149.5703,227.1191,153.5703,217.1191,157.5703,221.1191,153.5703" style="stroke:#181818;stroke-width:1;"/><line style="stroke:#181818;stroke-width:1;" x1="26.293" x2="223.1191" y1="153.5703" y2="153.5703"/><text fill="#000000" font-family="sans-serif" font-size="13" lengthAdjust="spacing" textLength="178.8262" x="33.293" y="148.7139">report.issue -&gt; Issue (reported)</text><polygon fill="#181818" points="217.1191,179.9219,227.1191,183.9219,217.1191,187.9219,221.1191,183.9219" style="stroke:#181818;stroke-width:1;"/><line style="stroke:#181818;stroke-width:1;" x1="93.2686" x2="223.1191" y1="183.9219" y2="183.9219"/><text fill="#000000" font-family="sans-serif" font-size="13" lengthAdjust="spacing" textLength="108.7417" x="100.2686" y="179.0654">triage -&gt; confirmed</text><polygon fill="#181818" points="276.519,210.2734,286.519,214.2734,276.519,218.2734,280.519,214.2734" style="stroke:#181818;stroke-width:1;"/><line style="stroke:#181818;stroke-width:1;" x1="93.2686" x2="282.519" y1="214.2734" y2="214.2734"/><text fill="#000000" font-family="sans-serif" font-size="13" lengthAdjust="spacing" textLength="108.6528" x="100.2686" y="209.417">&#1089;&#1086;&#1079;&#1076;&#1072;&#1090;&#1100; bug (new)</text><polygon fill="#181818" points="511.3286,240.625,521.3286,244.625,511.3286,248.625,515.3286,244.625" style="stroke:#181818;stroke-width:1;"/><line style="stroke:#181818;stroke-width:1;" x1="288.519" x2="517.3286" y1="244.625" y2="244.625"/><text fill="#000000" font-family="sans-serif" font-size="13" lengthAdjust="spacing" textLength="106.0884" x="295.519" y="239.7686">&#1088;&#1077;&#1073;&#1088;&#1086; issue-&gt;task</text><line style="stroke:#181818;stroke-width:1;" x1="288.519" x2="330.519" y1="274.9766" y2="274.9766"/><line style="stroke:#181818;stroke-width:1;" x1="330.519" x2="330.519" y1="274.9766" y2="287.9766"/><line style="stroke:#181818;stroke-width:1;" x1="289.519" x2="330.519" y1="287.9766" y2="287.9766"/><polygon fill="#181818" points="299.519,283.9766,289.519,287.9766,299.519,291.9766,295.519,287.9766" style="stroke:#181818;stroke-width:1;"/><text fill="#000000" font-family="sans-serif" font-size="13" lengthAdjust="spacing" textLength="220.8096" x="295.519" y="270.1201">inprogress -&gt; review (&#1087;&#1086;&#1090;&#1086;&#1083;&#1086;&#1082; &#1072;&#1075;&#1077;&#1085;&#1090;&#1072;)</text><polygon fill="#181818" points="276.519,314.3281,286.519,318.3281,276.519,322.3281,280.519,318.3281" style="stroke:#181818;stroke-width:1;"/><line style="stroke:#181818;stroke-width:1;" x1="93.2686" x2="282.519" y1="318.3281" y2="318.3281"/><text fill="#000000" font-family="sans-serif" font-size="13" lengthAdjust="spacing" textLength="144.5171" x="100.2686" y="313.4717">Done (guard: maintainer)</text><polygon fill="#181818" points="781.1162,344.6797,791.1162,348.6797,781.1162,352.6797,785.1162,348.6797" style="stroke:#181818;stroke-width:1;"/><line style="stroke:#181818;stroke-width:1;" x1="288.519" x2="787.1162" y1="348.6797" y2="348.6797"/><text fill="#000000" font-family="sans-serif" font-size="13" lengthAdjust="spacing" textLength="118.8853" x="295.519" y="343.8232">on transition -&gt; done</text><polygon fill="#181818" points="534.3286,375.0313,524.3286,379.0313,534.3286,383.0313,530.3286,379.0313" style="stroke:#181818;stroke-width:1;"/><line style="stroke:#181818;stroke-width:1;" x1="528.3286" x2="792.1162" y1="379.0313" y2="379.0313"/><text fill="#000000" font-family="sans-serif" font-size="13" lengthAdjust="spacing" textLength="245.7876" x="540.3286" y="374.1748">&#1086;&#1073;&#1088;&#1072;&#1090;&#1085;&#1099;&#1081; &#1087;&#1086;&#1080;&#1089;&#1082;: to=task, kind=issue_task</text><polygon fill="#181818" points="240.1191,405.3828,230.1191,409.3828,240.1191,413.3828,236.1191,409.3828" style="stroke:#181818;stroke-width:1;"/><line style="stroke:#181818;stroke-width:1;" x1="234.1191" x2="792.1162" y1="409.3828" y2="409.3828"/><text fill="#000000" font-family="sans-serif" font-size="13" lengthAdjust="spacing" textLength="199.1387" x="246.1191" y="404.5264">&#1079;&#1072;&#1082;&#1088;&#1099;&#1090;&#1100; &#1089;&#1074;&#1103;&#1079;&#1072;&#1085;&#1085;&#1099;&#1081; Issue -&gt; done</text><!--SRC=[LL7BRben4DtxAwQiG2hz0AH4gbGXiM135cHNJRZ3bGNOLxOfwWvGr4qIvHlw1oHDrOG8-WlZF-hOz-RHXQNnEVCuS-P3vR1S8Cpnkrq6y0iAQ5057UO4_3F-uDzyu5rSyoC_zO3t4XtZ9cwwV2V1cX_u4A_u2U9Dl8oNahsFM-0TtySj7xlyHqAfYLVoVOot2YV1ElXSaWbDF4HjWZnoW1w6ga8Nz4HNQ0Aq1aBDg9MOmV_CsBfPniUgm80Nw0bQ8vfZqDRup8pKn9hWx1nQ_RCXq7HAar1J_NEbiWZedi80Uk2eiYvyqjulAMCvQDSm5HqrVCaCJcEPSwJxLBi55JKv5Z9k-2WxFuXZstWD5yiIsePM7JLE6QEKiHQFxfABa8TrJmFwMSsd3jfKpfQEl4-8es-QLj3clsAs6ChFylR9tr_fC0BjEc_JlrWZciibkg87YrTVc-dzSqcnHXP0utMoAQ65r2YX6ddIFeaJ-SrTqsIvt8RtihezIM8_maoRuYJB_vhLr_N9dVS75mEaxZxUPl3GD1oyM9mc_mC0]--></g></svg>