<svg xmlns="http://www.w3.org/2000/svg" xmlns:xlink="http://www.w3.org/1999/xlink" contentStyleType="text/css" height="495px" preserveAspectRatio="none" style="width:1187px;height:495px;background:#FFFFFF;" version="1.1" viewBox="0 0 1187 495" width="1187px" zoomAndPan="magnify"><title>&#1057;&#1094;&#1077;&#1085;&#1072;&#1088;&#1080;&#1081;: &#1089;&#1082;&#1074;&#1086;&#1079;&#1085;&#1086;&#1081; dogfood (idea -&gt; spec -&gt; work -&gt; Done)</title><defs/><g><text fill="#000000" font-family="sans-serif" font-size="14" font-weight="bold" lengthAdjust="spacing" textLength="404.1133" x="392.1499" y="29.5332">&#1057;&#1094;&#1077;&#1085;&#1072;&#1088;&#1080;&#1081;: &#1089;&#1082;&#1074;&#1086;&#1079;&#1085;&#1086;&#1081; dogfood (idea -&gt; spec -&gt; work -&gt; Done)</text><line style="stroke:#181818;stroke-width:0.5;stroke-dasharray:5.0,5.0;" x1="40" x2="40" y1="121.2188" y2="413.3828"/><line style="stroke:#181818;stroke-width:0.5;stroke-dasharray:5.0,5.0;" x1="107.3652" x2="107.3652" y1="121.2188" y2="413.3828"/><line style="stroke:#181818;stroke-width:0.5;stroke-dasharray:5.0,5.0;" x1="256.1958" x2="256.1958" y1="121.2188" y2="413.3828"/><line style="stroke:#181818;stroke-width:0.5;stroke-dasharray:5.0,5.0;" x1="603.5586" x2="603.5586" y1="121.2188" y2="413.3828"/><line style="stroke:#181818;stroke-width:0.5;stroke-dasharray:5.0,5.0;" x1="899.3838" x2="899.3838" y1="121.2188" y2="413.3828"/><line style="stroke:#181818;stroke-width:0.5;stroke-dasharray:5.0,5.0;" x1="1152.0479" x2="1152.0479" y1="121.2188" y2="413.3828"/><text fill="#000000" font-family="sans-serif" font-size="14" lengthAdjust="spacing" textLength="65.3652" x="5" y="118.1426">Maintainer</text><ellipse cx="40.6826" cy="52.1094" fill="#E2E2F0" rx="8" ry="8" style="stroke:#181818;stroke-width:0.5;"/><path d="M40.6826,60.1094 L40.6826,87.1094 M27.6826,68.1094 L53.6826,68.1094 M40.6826,87.1094 L27.6826,102.1094 M40.6826,87.1094 L53.6826,102.1094 " fill="none" style="stroke:#181818;stroke-width:0.5;"/><text fill="#000000" font-family="sans-serif" font-size="14" lengthAdjust="spacing" textLength="65.3652" x="5" y="426.916">Maintainer</text><ellipse cx="40.6826" cy="438.4922" fill="#E2E2F0" rx="8" ry="8" style="stroke:#181818;stroke-width:0.5;"/><path d="M40.6826,446.4922 L40.6826,473.4922 M27.6826,454.4922 L53.6826,454.4922 M40.6826,473.4922 L27.6826,488.4922 M40.6826,473.4922 L53.6826,488.4922 " fill="none" style="stroke:#181818;stroke-width:0.5;"/><text fill="#000000" font-family="sans-serif" font-size="14" lengthAdjust="spacing" textLength="36.5859" x="86.3652" y="118.1426">Agent</text><ellipse cx="107.6582" cy="52.1094" fill="#E2E2F0" rx="8" ry="8" style="stroke:#181818;stroke-width:0.5;"/><path d="M107.6582,60.1094 L107.6582,87.1094 M94.6582,68.1094 L120.6582,68.1094 M107.6582,87.1094 L94.6582,102.1094 M107.6582,87.1094 L120.6582,102.1094 " fill="none" style="stroke:#181818;stroke-width:0.5;"/><text fill="#000000" font-family="sans-serif" font-size="14" lengthAdjust="spacing" textLength="36.5859" x="86.3652" y="426.916">Agent</text><ellipse cx="107.6582" cy="438.4922" fill="#E2E2F0" rx="8" ry="8" style="stroke:#181818;stroke-width:0.5;"/><path d="M107.6582,446.4922 L107.6582,473.4922 M94.6582,454.4922 L120.6582,454.4922 M107.6582,473.4922 L94.6582,488.4922 M107.6582,473.4922 L120.6582,488.4922 " fill="none" style="stroke:#181818;stroke-width:0.5;"/><rect fill="#E2E2F0" height="31.6094" rx="2.5" ry="2.5" style="stroke:#181818;stroke-width:0.5;" width="48.248" x="232.1958" y="88.6094"/><text fill="#000000" font-family="sans-serif" font-size="14" lengthAdjust="spacing" textLength="34.248" x="239.1958" y="110.1426">Ideas</text><rect fill="#E2E2F0" height="31.6094" rx="2.5" ry="2.5" style="stroke:#181818;stroke-width:0.5;" width="48.248" x="232.1958" y="412.3828"/><text fill="#000000" font-family="sans-serif" font-size="14" lengthAdjust="spacing" textLength="34.248" x="239.1958" y="433.916">Ideas</text><rect fill="#E2E2F0" height="31.6094" rx="2.5" ry="2.5" style="stroke:#181818;stroke-width:0.5;" width="45.9102" x="581.5586" y="88.6094"/><text fill="#000000" font-family="sans-serif" font-size="14" lengthAdjust="spacing" textLength="31.9102" x="588.5586" y="110.1426">Spec</text><rect fill="#E2E2F0" height="31.6094" rx="2.5" ry="2.5" style="stroke:#181818;stroke-width:0.5;" width="45.9102" x="581.5586" y="412.3828"/><text fill="#000000" font-family="sans-serif" font-size="14" lengthAdjust="spacing" textLength="31.9102" x="588.5586" y="433.916">Spec</text><rect fill="#E2E2F0" height="31.6094" rx="2.5" ry="2.5" style="stroke:#181818;stroke-width:0.5;" width="46.6621" x="876.3838" y="88.6094"/><text fill="#000000" font-family="sans-serif" font-size="14" lengthAdjust="spacing" textLength="32.6621" x="883.3838" y="110.1426">Work</text><rect fill="#E2E2F0" height="31.6094" rx="2.5" ry="2.5" style="stroke:#181818;stroke-width:0.5;" width="46.6621" x="876.3838" y="412.3828"/><text fill="#000000" font-family="sans-serif" font-size="14" lengthAdjust="spacing" textLength="32.6621" x="883.3838" y="433.916">Work</text><text fill="#000000" font-family="sans-serif" font-size="14" lengthAdjust="spacing" textLength="58.3652" x="1120.0479" y="118.1426">Relations</text><path d="M1134.2305,67.6094 C1134.2305,57.6094 1152.2305,57.6094 1152.2305,57.6094 C1152.2305,57.6094 1170.2305,57.6094 1170.2305,67.6094 L1170.2305,93.6094 C1170.2305,103.6094 1152.2305,103.6094 1152.2305,103.6094 C1152.2305,103.6094 1134.2305,103.6094 1134.2305,93.6094 L1134.2305,67.6094 " fill="#E2E2F0" style="stroke:#181818;stroke-width:1.5;"/><path d="M1134.2305,67.6094 C1134.2305,77.6094 1152.2305,77.6094 1152.2305,77.6094 C1152.2305,77.6094 1170.2305,77.6094 1170.2305,67.6094 " fill="none" style="stroke:#181818;stroke-width:1.5;"/><text fill="#000000" font-family="sans-serif" font-size="14" lengthAdjust="spacing" textLength="58.3652" x="1120.0479" y="426.916">Relations</text><path d="M1134.2305,439.9922 C1134.2305,429.9922 1152.2305,429.9922 1152.2305,429.9922 C1152.2305,429.9922 1170.2305,429.9922 1170.2305,439.9922 L1170.2305,465.9922 C1170.2305,475.9922 1152.2305,475.9922 1152.2305,475.9922 C1152.2305,475.9922 1134.2305,475.9922 1134.2305,465.9922 L1134.2305,439.9922 " fill="#E2E2F0" style="stroke:#181818;stroke-width:1.5;"/><path d="M1134.2305,439.9922 C1134.2305,449.9922 1152.2305,449.9922 1152.2305,449.9922 C1152.2305,449.9922 1170.2305,449.9922 1170.2305,439.9922 " fill="none" style="stroke:#181818;stroke-width:1.5;"/><polygon fill="#181818" points="244.3198,149.5703,254.3198,153.5703,244.3198,157.5703,248.3198,153.5703" style="stroke:#181818;stroke-width:1;"/><line style="stroke:#181818;stroke-width:1;" x1="40.6826" x2="250.3198" y1="153.5703" y2="153.5703"/><text fill="#000000" font-family="sans-serif" font-size="13" lengthAdjust="spacing" textLength="115.1528" x="47.6826" y="148.7139">idea (raw) &#171;&#1093;&#1086;&#1095;&#1091; X&#187;</text><polygon fill="#181818" points="244.3198,179.9219,254.3198,183.9219,244.3198,187.9219,248.3198,183.9219" style="stroke:#181818;stroke-width:1;"/><line style="stroke:#181818;stroke-width:1;" x1="107.6582" x2="250.3198" y1="183.9219" y2="183.9219"/><text fill="#000000" font-family="sans-serif" font-size="13" lengthAdjust="spacing" textLength="124.6616" x="114.6582" y="179.0654">exploring -&gt; accepted</text><polygon fill="#181818" points="592.5137,210.2734,602.5137,214.2734,592.5137,218.2734,596.5137,214.2734" style="stroke:#181818;stroke-width:1;"/><line style="stroke:#181818;stroke-width:1;" x1="256.3198" x2="598.5137" y1="214.2734" y2="214.2734"/><text fill="#000000" font-family="sans-serif" font-size="13" lengthAdjust="spacing" textLength="324.1938" x="263.3198" y="209.417">effect idea-&gt;spec: &#1089;&#1086;&#1079;&#1076;&#1072;&#1090;&#1100;/&#1091;&#1090;&#1086;&#1095;&#1085;&#1080;&#1090;&#1100; &#1051;&#1048;&#1057;&#1058; &#1090;&#1088;&#1077;&#1073;&#1086;&#1074;&#1072;&#1085;&#1080;&#1103;</text><polygon fill="#181818" points="887.7148,240.625,897.7148,244.625,887.7148,248.625,891.7148,244.625" style="stroke:#181818;stroke-width:1;"/><line style="stroke:#181818;stroke-width:1;" x1="107.6582" x2="893.7148" y1="244.625" y2="244.625"/><text fill="#000000" font-family="sans-serif" font-size="13" lengthAdjust="spacing" textLength="140.5562" x="114.6582" y="239.7686">feature (new) &#1076;&#1083;&#1103; &#1083;&#1080;&#1089;&#1090;&#1072;</text><polygon fill="#181818" points="1140.2305,270.9766,1150.2305,274.9766,1140.2305,278.9766,1144.2305,274.9766" style="stroke:#181818;stroke-width:1;"/><line style="stroke:#181818;stroke-width:1;" x1="899.7148" x2="1146.2305" y1="274.9766" y2="274.9766"/><text fill="#000000" font-family="sans-serif" font-size="13" lengthAdjust="spacing" textLength="228.5156" x="906.7148" y="270.1201">&#1088;&#1077;&#1073;&#1088;&#1086; task-&gt;spec-leaf (&#1054;&#1041;&#1071;&#1047;&#1040;&#1058;&#1045;&#1051;&#1045;&#1053;)</text><polygon fill="#181818" points="887.7148,301.3281,897.7148,305.3281,887.7148,309.3281,891.7148,305.3281" style="stroke:#181818;stroke-width:1;"/><line style="stroke:#181818;stroke-width:1;" x1="107.6582" x2="893.7148" y1="305.3281" y2="305.3281"/><text fill="#000000" font-family="sans-serif" font-size="13" lengthAdjust="spacing" textLength="220.8096" x="114.6582" y="300.4717">inprogress -&gt; review (&#1087;&#1086;&#1090;&#1086;&#1083;&#1086;&#1082; &#1072;&#1075;&#1077;&#1085;&#1090;&#1072;)</text><polygon fill="#181818" points="887.7148,331.6797,897.7148,335.6797,887.7148,339.6797,891.7148,335.6797" style="stroke:#181818;stroke-width:1;"/><line style="stroke:#181818;stroke-width:1;" x1="40.6826" x2="893.7148" y1="335.6797" y2="335.6797"/><text fill="#000000" font-family="sans-serif" font-size="13" lengthAdjust="spacing" textLength="119.958" x="47.6826" y="330.8232">Done (approve-gate)</text><line style="stroke:#181818;stroke-width:1;" x1="604.5137" x2="646.5137" y1="382.3828" y2="382.3828"/><line style="stroke:#181818;stroke-width:1;" x1="646.5137" x2="646.5137" y1="382.3828" y2="395.3828"/><line style="stroke:#181818;stroke-width:1;" x1="605.5137" x2="646.5137" y1="395.3828" y2="395.3828"/><polygon fill="#181818" points="615.5137,391.3828,605.5137,395.3828,615.5137,399.3828,611.5137,395.3828" style="stroke:#181818;stroke-width:1;"/><text fill="#000000" font-family="sans-serif" font-size="13" lengthAdjust="spacing" textLength="194.5874" x="611.5137" y="361.1748">rollup &#1083;&#1080;&#1089;&#1090;&#1072;: &#1087;&#1077;&#1088;&#1077;&#1089;&#1095;&#1080;&#1090;&#1072;&#1090;&#1100; &#1089;&#1090;&#1072;&#1090;&#1091;&#1089;</text><text fill="#000000" font-family="sans-serif" font-size="13" lengthAdjust="spacing" textLength="281.2012" x="611.5137" y="377.5264">(Done / Done-&#1089;-&#1076;&#1077;&#1092;&#1077;&#1082;&#1090;&#1072;&#1084;&#1080; &#1087;&#1088;&#1080; &#1086;&#1090;&#1082;&#1088;&#1099;&#1090;&#1086;&#1084; &#1073;&#1072;&#1075;&#1077;)</text><!--SRC=[LLAnRXD14EtlAmPNv-AKtaKaIswio59a5wQW6Ux6frCkjwUzTGoT7GCfG0eK4KW8fAIbm0Gi73iSKhvWze-OtGEK57UxE-_jcxTlzr6fCJr6oF6vcXgeZibWWO79J4x0b_OLh_aNh-oSDtpJ0RlWBLzppJ-bMlCD92gTA9L0c2M44Er3LLBinfdIHsxigOBQ0SP6QHXWLXZvI0DMCFXRxQPK65Ve1YLgayLPYL9ezKMnQZcWttk8ZAI71qQ73u6nDFN0-218qE1Jh0XQGyhHPAfen8P1C736-ZteW7STQforuUwBVScrFRDBU7ot2xh_EVIip9NEYjHLC8wfD9G40iboTEW8amd5ncj5- -xyFYUNqGz9xjI-sRDBU-gq9RIDAm1_v0zyoLSWgxb4_4terxpo-7dJUtmWqXD2CzK4OK5YKVHszXnu9wo5AAu28GbrACn6Hlur6AoE6YDHJZY1a3_pE_xAx_ajN_65zBxWJ-rxNRAYr2hLL5MkfEaaevdi-YsMnRQqgtaBukwxUmokRxk9q6zs5mmXbY9nGb6AHgvROlaNZbPvFYtlUUw02A-TNLcVkJoQaA21PRgqYoT5w7Ntl7na5v6SVMrVY86jO_4jRqJ7FKlmBhTsRbzxjxSWQNglxJy0]--></g></svg>